<?xml version="1.0" encoding="UTF-8" standalone="no"?>
<!-- Created with Inkscape (http://www.inkscape.org/) -->

<svg
   width="210mm"
   height="297mm"
   viewBox="0 0 210 297"
   version="1.1"
   id="svg5"
   inkscape:version="1.1 (c68e22c387, 2021-05-23)"
   sodipodi:docname="drawing.svg"
   xmlns:inkscape="http://www.inkscape.org/namespaces/inkscape"
   xmlns:sodipodi="http://sodipodi.sourceforge.net/DTD/sodipodi-0.dtd"
   xmlns="http://www.w3.org/2000/svg"
   xmlns:svg="http://www.w3.org/2000/svg">
  <sodipodi:namedview
     id="namedview7"
     pagecolor="#ffffff"
     bordercolor="#666666"
     borderopacity="1.0"
     inkscape:pageshadow="2"
     inkscape:pageopacity="0.0"
     inkscape:pagecheckerboard="0"
     inkscape:document-units="mm"
     showgrid="false"
     inkscape:zoom="1.0230034"
     inkscape:cx="419.84222"
     inkscape:cy="305.47309"
     inkscape:window-width="1920"
     inkscape:window-height="1001"
     inkscape:window-x="-9"
     inkscape:window-y="-9"
     inkscape:window-maximized="1"
     inkscape:current-layer="layer1" />
  <defs
     id="defs2" />
  <g
     inkscape:label="Layer 1"
     inkscape:groupmode="layer"
     id="layer1">
    <text
       xml:space="preserve"
       style="font-size:14.1111px;line-height:1.25;font-family:sans-serif;stroke-width:0.264583"
       x="37.30788"
       y="24.506157"
       id="text759"><tspan
         sodipodi:role="line"
         id="tspan757"
         style="stroke-width:0.264583"
         x="37.30788"
         y="24.506157">Fertility calculations - simple</tspan></text>
    <g
       id="g17683"
       transform="matrix(2.1741234,0,0,2.1741234,-192.18702,-62.830503)">
      <path
         d="m 183.50767,64.350376 c -1.69581,1.425928 -4.22593,1.207911 -5.6508,-0.489655 -1.42804,-1.694745 -1.21779,-4.237215 0.48542,-5.654323 2.76931,-2.303639 6.03991,-1.173692 8.11954,-1.432278 -1.85773,1.2954 -0.62689,5.61587 -2.95416,7.576256"
         style="fill:#4abe5f;fill-opacity:1;fill-rule:nonzero;stroke:none;stroke-width:0.0352778"
         id="path6041" />
      <path
         d="m 183.00813,56.948392 c -1.30104,0 -2.99085,0.162984 -4.51908,1.434395 -0.77153,0.641703 -1.24531,1.548342 -1.33421,2.5527 -0.0896,1.013531 0.2219,1.999897 0.87736,2.77742 0.72002,0.857955 1.77518,1.349728 2.89595,1.349728 0.88724,0 1.75084,-0.315384 2.43205,-0.887589 1.15535,-0.973314 1.38431,-2.572456 1.60585,-4.119034 0.16686,-1.163461 0.32632,-2.274711 0.89006,-3.01237 -0.42439,0.0067 -0.89994,-0.01729 -1.3963,-0.04374 -0.46884,-0.02575 -0.95356,-0.05151 -1.45168,-0.05151 z m -2.07998,8.572854 c -1.25659,0 -2.43981,-0.551745 -3.24731,-1.513064 -0.73414,-0.871361 -1.08339,-1.97732 -0.98284,-3.112912 0.0998,-1.127125 0.63147,-2.144536 1.49719,-2.865261 1.64182,-1.365603 3.43464,-1.540581 4.81294,-1.540581 0.51047,0 1.00154,0.02681 1.47638,0.05221 0.75177,0.04092 1.45415,0.06668 1.9491,0.0046 0.10336,-0.01199 0.20461,0.04727 0.24235,0.14605 0.0377,0.09807 0.004,0.20955 -0.0829,0.269875 -0.8001,0.558094 -0.98142,1.821391 -1.17298,3.158772 -0.22296,1.555397 -0.47555,3.318934 -1.7646,4.404784 -0.76341,0.642055 -1.73214,0.995539 -2.72732,0.995539"
         style="fill:#100f0d;fill-opacity:1;fill-rule:nonzero;stroke:none;stroke-width:0.0352778"
         id="path6043" />
      <path
         d="m 176.53501,69.965893 c -0.10795,0 -0.20461,-0.07726 -0.22472,-0.187678 -1.12148,-6.019094 5.58553,-10.292292 5.65327,-10.334625 0.10795,-0.06809 0.24871,-0.03422 0.31609,0.07267 0.067,0.107244 0.0346,0.249061 -0.0727,0.316089 -0.0653,0.04092 -6.50981,4.151489 -5.44619,9.861903 0.0233,0.124884 -0.0589,0.244122 -0.18309,0.267406 -0.0141,0.0028 -0.0286,0.0042 -0.0427,0.0042"
         style="fill:#100f0d;fill-opacity:1;fill-rule:nonzero;stroke:none;stroke-width:0.0352778"
         id="path6045" />
      <path
         d="m 181.35925,62.538862 c -0.009,0 -0.018,-7.05e-4 -0.0268,-0.0018 l -2.02071,-0.236008 c -0.11959,-0.01376 -0.20814,-0.117828 -0.20285,-0.238125 l 0.0896,-1.977672 c 0.006,-0.127 0.12594,-0.220134 0.23954,-0.218723 0.12629,0.0056 0.22471,0.112889 0.21872,0.239184 l -0.0797,1.764594 1.80834,0.211314 c 0.12594,0.01482 0.21625,0.128411 0.20143,0.254353 -0.0134,0.116769 -0.11289,0.202847 -0.22754,0.202847"
         style="fill:#100f0d;fill-opacity:1;fill-rule:nonzero;stroke:none;stroke-width:0.0352778"
         id="path6047" />
      <path
         d="m 170.05554,65.493023 c 0.1965,0.617362 0.61384,1.166637 1.22097,1.513064 1.28552,0.7366 2.92452,0.289278 3.66077,-0.99695 0.73554,-1.285875 0.29387,-2.932641 -0.99589,-3.66148 -2.09656,-1.187451 -4.11198,-0.05045 -5.51392,0.02752 2.01436,0.918281 1.14653,1.593145 1.62807,3.11785"
         style="fill:#4abe5f;fill-opacity:1;fill-rule:nonzero;stroke:none;stroke-width:0.0352778"
         id="path6049" />
      <path
         d="m 169.15667,62.50182 c 0.83608,0.526698 0.90875,1.041048 0.94262,1.763889 0.0155,0.33267 0.0332,0.709084 0.17498,1.158523 0.18732,0.58808 0.58349,1.079147 1.11583,1.382536 0.37077,0.212725 0.79128,0.324556 1.21567,0.324908 v 0 c 0.87877,0 1.69581,-0.47378 2.13254,-1.236839 0.32738,-0.572558 0.4117,-1.23825 0.23672,-1.874661 -0.17357,-0.629708 -0.58032,-1.153231 -1.14618,-1.4732 -0.6043,-0.341842 -1.24883,-0.508 -1.97167,-0.508 -0.72672,0 -1.43757,0.168981 -2.06481,0.318558 -0.21766,0.05186 -0.43039,0.102306 -0.6357,0.144286 z m 3.4491,5.088467 v 0 c -0.50447,0 -1.0033,-0.13335 -1.44321,-0.385233 -0.63218,-0.360539 -1.10314,-0.943681 -1.32539,-1.642533 -0.16016,-0.506589 -0.17921,-0.915106 -0.19614,-1.275292 -0.0339,-0.729192 -0.0529,-1.130653 -1.30881,-1.703211 -0.096,-0.04374 -0.14958,-0.147461 -0.13017,-0.251178 0.0198,-0.103717 0.10724,-0.180975 0.21272,-0.18662 0.37289,-0.02081 0.80928,-0.124883 1.27141,-0.23495 0.65194,-0.155222 1.3903,-0.330905 2.171,-0.330905 0.80398,0 1.52259,0.185561 2.1971,0.567619 0.67275,0.380648 1.15711,1.001889 1.36278,1.750484 0.20743,0.754944 0.10795,1.544814 -0.28046,2.224617 -0.51823,0.904875 -1.48802,1.467202 -2.53083,1.467202"
         style="fill:#100f0d;fill-opacity:1;fill-rule:nonzero;stroke:none;stroke-width:0.0352778"
         id="path6051" />
      <path
         d="m 176.51667,69.945079 c -3.5e-4,0 -7.1e-4,0 -0.001,0 -0.127,-7.05e-4 -0.22895,-0.104069 -0.2286,-0.230364 0.0166,-3.389489 -3.65337,-5.145617 -3.69076,-5.162903 -0.1143,-0.05362 -0.16369,-0.190147 -0.11042,-0.3048 0.0533,-0.115005 0.18909,-0.165453 0.30444,-0.110772 0.16228,0.07549 3.97334,1.89477 3.9557,5.580239 -7e-4,0.126647 -0.10336,0.2286 -0.2293,0.2286"
         style="fill:#100f0d;fill-opacity:1;fill-rule:nonzero;stroke:none;stroke-width:0.0352778"
         id="path6053" />
      <path
         d="m 173.45244,63.720315 0.29563,1.28905 -1.30246,0.396875"
         style="fill:#4abe5f;fill-opacity:1;fill-rule:nonzero;stroke:none;stroke-width:0.0352778"
         id="path6055" />
      <path
         d="m 172.44561,65.635546 c -0.0984,0 -0.18909,-0.06385 -0.21943,-0.162631 -0.037,-0.121355 0.031,-0.249414 0.1524,-0.286103 l 1.0982,-0.334786 -0.248,-1.080205 c -0.0282,-0.123825 0.049,-0.246592 0.17251,-0.274814 0.12029,-0.02752 0.24624,0.04833 0.27481,0.172155 l 0.29563,1.288698 c 0.0268,0.117475 -0.0416,0.235655 -0.15663,0.270933 l -1.30281,0.396875 c -0.0222,0.0063 -0.0448,0.0099 -0.0667,0.0099"
         style="fill:#100f0d;fill-opacity:1;fill-rule:nonzero;stroke:none;stroke-width:0.0352778"
         id="path6057" />
      <path
         d="m 164.29997,81.218447 c 0,-4.138789 -0.0325,-4.317648 0,-8.450087 0.004,-0.597253 0.0363,-1.196975 0.0572,-1.793875 2.86809,0.617714 2.79929,1.124656 5.75663,0.209197 2.23485,-0.644172 2.47897,0.0056 4.14549,0.515761 1.50129,0.163131 2.80861,-0.320322 4.21292,-0.480483 0.4191,-0.03528 0.92322,0 1.58609,0.173214 3.187,0.838553 2.69099,-1.091495 5.82048,-0.784931 0.9779,0.09525 1.76001,0.259645 2.76719,0.259645 l -5e-5,10.351559 z"
         style="fill:#eead4c;fill-opacity:1;fill-rule:nonzero;stroke:#000000;stroke-width:1.2;stroke-linecap:square;stroke-linejoin:round;stroke-miterlimit:4;stroke-dasharray:none;stroke-opacity:1"
         id="path6059"
         sodipodi:nodetypes="ccccccccccc" />
      <path
         d="m 176.51596,74.778841 c -0.127,0 -0.22966,-0.102659 -0.22966,-0.229306 v -4.923367 c 0,-0.127 0.10266,-0.229658 0.22966,-0.229658 0.12665,0 0.22931,0.102658 0.22931,0.229658 v 4.923367 c 0,0.126647 -0.10266,0.229306 -0.22931,0.229306"
         style="fill:#100f0d;fill-opacity:1;fill-rule:nonzero;stroke:none;stroke-width:0.0352778"
         id="path6063" />
      <path
         d="m 167.34444,73.916299 h -2.18651 c -0.12665,0 -0.22931,-0.102658 -0.22931,-0.229658 0,-0.126648 0.10266,-0.229306 0.22931,-0.229306 h 2.18651 c 0.12665,0 0.22931,0.102658 0.22931,0.229306 0,0.127 -0.10266,0.229658 -0.22931,0.229658"
         style="fill:#100f0d;fill-opacity:1;fill-rule:nonzero;stroke:none;stroke-width:0.0352778"
         id="path6065" />
      <path
         d="m 170.92832,73.916299 h -1.86479 c -0.127,0 -0.22966,-0.102658 -0.22966,-0.229658 0,-0.126648 0.10266,-0.229306 0.22966,-0.229306 h 1.86479 c 0.12664,0 0.2293,0.102658 0.2293,0.229306 0,0.127 -0.10266,0.229658 -0.2293,0.229658"
         style="fill:#100f0d;fill-opacity:1;fill-rule:nonzero;stroke:none;stroke-width:0.0352778"
         id="path6067" />
      <path
         d="m 182.01789,73.916299 h -2.18617 c -0.12665,0 -0.22931,-0.102658 -0.22931,-0.229658 0,-0.126648 0.10266,-0.229306 0.22931,-0.229306 h 2.18617 c 0.127,0 0.22965,0.102658 0.22965,0.229306 0,0.127 -0.10265,0.229658 -0.22965,0.229658"
         style="fill:#100f0d;fill-opacity:1;fill-rule:nonzero;stroke:none;stroke-width:0.0352778"
         id="path6069" />
      <path
         d="m 184.65137,73.916299 h -1.86372 c -0.12665,0 -0.22931,-0.102658 -0.22931,-0.229658 0,-0.126648 0.10266,-0.229306 0.22931,-0.229306 h 1.86372 c 0.127,0 0.22966,0.102658 0.22966,0.229306 0,0.127 -0.10266,0.229658 -0.22966,0.229658"
         style="fill:#100f0d;fill-opacity:1;fill-rule:nonzero;stroke:none;stroke-width:0.0352778"
         id="path6071" />
      <path
         d="m 187.23124,73.916299 h -0.80504 c -0.127,0 -0.22966,-0.102658 -0.22966,-0.229658 0,-0.126648 0.10266,-0.229306 0.22966,-0.229306 h 0.80504 c 0.12664,0 0.2293,0.102658 0.2293,0.229306 0,0.127 -0.10266,0.229658 -0.2293,0.229658"
         style="fill:#100f0d;fill-opacity:1;fill-rule:nonzero;stroke:none;stroke-width:0.0352778"
         id="path6073" />
      <path
         d="m 187.23124,75.602224 h -2.18582 c -0.12664,0 -0.2293,-0.102658 -0.2293,-0.229305 0,-0.127001 0.10266,-0.229659 0.2293,-0.229659 h 2.18582 c 0.12664,0 0.2293,0.102658 0.2293,0.229659 0,0.126647 -0.10266,0.229305 -0.2293,0.229305"
         style="fill:#100f0d;fill-opacity:1;fill-rule:nonzero;stroke:none;stroke-width:0.0352778"
         id="path6075" />
      <path
         d="m 183.32563,75.602224 h -1.86372 c -0.12665,0 -0.22931,-0.102658 -0.22931,-0.229305 0,-0.127001 0.10266,-0.229659 0.22931,-0.229659 h 1.86372 c 0.127,0 0.22966,0.102658 0.22966,0.229659 0,0.126647 -0.10266,0.229305 -0.22966,0.229305"
         style="fill:#100f0d;fill-opacity:1;fill-rule:nonzero;stroke:none;stroke-width:0.0352778"
         id="path6077" />
      <path
         d="m 172.55744,75.602224 h -2.18616 c -0.127,0 -0.22966,-0.102658 -0.22966,-0.229305 0,-0.127001 0.10266,-0.229659 0.22966,-0.229659 h 2.18616 c 0.12665,0 0.22931,0.102658 0.22931,0.229659 0,0.126647 -0.10266,0.229305 -0.22931,0.229305"
         style="fill:#100f0d;fill-opacity:1;fill-rule:nonzero;stroke:none;stroke-width:0.0352778"
         id="path6079" />
      <path
         d="m 169.60258,75.602224 h -1.86408 c -0.12665,0 -0.22931,-0.102658 -0.22931,-0.229305 0,-0.127001 0.10266,-0.229659 0.22931,-0.229659 h 1.86408 c 0.12664,0 0.2293,0.102658 0.2293,0.229659 0,0.126647 -0.10266,0.229305 -0.2293,0.229305"
         style="fill:#100f0d;fill-opacity:1;fill-rule:nonzero;stroke:none;stroke-width:0.0352778"
         id="path6081" />
      <path
         d="m 165.96332,75.602224 h -0.80539 c -0.12665,0 -0.22931,-0.102658 -0.22931,-0.229305 0,-0.127001 0.10266,-0.229659 0.22931,-0.229659 h 0.80539 c 0.12665,0 0.22931,0.102658 0.22931,0.229659 0,0.126647 -0.10266,0.229305 -0.22931,0.229305"
         style="fill:#100f0d;fill-opacity:1;fill-rule:nonzero;stroke:none;stroke-width:0.0352778"
         id="path6083" />
      <path
         d="m 167.34444,78.173974 h -2.18651 c -0.12665,0 -0.22931,-0.102658 -0.22931,-0.229305 0,-0.127 0.10266,-0.229659 0.22931,-0.229659 h 2.18651 c 0.12665,0 0.22931,0.102659 0.22931,0.229659 0,0.126647 -0.10266,0.229305 -0.22931,0.229305"
         style="fill:#100f0d;fill-opacity:1;fill-rule:nonzero;stroke:none;stroke-width:0.0352778"
         id="path6085" />
      <path
         d="m 170.92832,78.173974 h -1.86479 c -0.127,0 -0.22966,-0.102658 -0.22966,-0.229305 0,-0.127 0.10266,-0.229659 0.22966,-0.229659 h 1.86479 c 0.12664,0 0.2293,0.102659 0.2293,0.229659 0,0.126647 -0.10266,0.229305 -0.2293,0.229305"
         style="fill:#100f0d;fill-opacity:1;fill-rule:nonzero;stroke:none;stroke-width:0.0352778"
         id="path6087" />
      <path
         d="m 182.01789,78.173974 h -2.18617 c -0.12665,0 -0.22931,-0.102658 -0.22931,-0.229305 0,-0.127 0.10266,-0.229659 0.22931,-0.229659 h 2.18617 c 0.127,0 0.22965,0.102659 0.22965,0.229659 0,0.126647 -0.10265,0.229305 -0.22965,0.229305"
         style="fill:#100f0d;fill-opacity:1;fill-rule:nonzero;stroke:none;stroke-width:0.0352778"
         id="path6089" />
      <path
         d="m 184.65137,78.173974 h -1.86372 c -0.12665,0 -0.22931,-0.102658 -0.22931,-0.229305 0,-0.127 0.10266,-0.229659 0.22931,-0.229659 h 1.86372 c 0.127,0 0.22966,0.102659 0.22966,0.229659 0,0.126647 -0.10266,0.229305 -0.22966,0.229305"
         style="fill:#100f0d;fill-opacity:1;fill-rule:nonzero;stroke:none;stroke-width:0.0352778"
         id="path6091" />
      <path
         d="m 186.4262,77.944669 h 0.80504"
         style="fill:#eead4c;fill-opacity:1;fill-rule:nonzero;stroke:none;stroke-width:0.0352778"
         id="path6093" />
      <path
         d="m 187.23124,78.173974 h -0.80504 c -0.127,0 -0.22966,-0.102658 -0.22966,-0.229305 0,-0.127 0.10266,-0.229659 0.22966,-0.229659 h 0.80504 c 0.12664,0 0.2293,0.102659 0.2293,0.229659 0,0.126647 -0.10266,0.229305 -0.2293,0.229305"
         style="fill:#100f0d;fill-opacity:1;fill-rule:nonzero;stroke:none;stroke-width:0.0352778"
         id="path6095" />
      <path
         d="m 169.29883,58.307292 c 0.42828,0 0.77576,0.346075 0.77576,0.776112 0,0.430036 -0.34748,0.776111 -0.77576,0.776111 -0.42721,0 -0.77646,-0.346075 -0.77646,-0.776111 0,-0.430037 0.34925,-0.776112 0.77646,-0.776112"
         style="fill:#52aee5;fill-opacity:1;fill-rule:nonzero;stroke:none;stroke-width:0.0352778"
         id="path6097" />
      <path
         d="m 169.29883,58.536598 c -0.30197,0 -0.54715,0.245181 -0.54715,0.546806 0,0.301272 0.24518,0.546805 0.54715,0.546805 0.30128,0 0.54646,-0.245533 0.54646,-0.546805 0,-0.301625 -0.24518,-0.546806 -0.54646,-0.546806 z m 0,1.552222 c -0.55491,0 -1.00612,-0.451202 -1.00612,-1.005416 0,-0.554214 0.45121,-1.00577 1.00612,-1.00577 0.55422,0 1.00507,0.451556 1.00507,1.00577 0,0.554214 -0.45085,1.005416 -1.00507,1.005416"
         style="fill:#100f0d;fill-opacity:1;fill-rule:nonzero;stroke:none;stroke-width:0.0352778"
         id="path6099" />
      <path
         d="m 166.00248,64.418462 c -0.1644,0 -0.2981,0.135467 -0.2981,0.301625 0,0.162984 0.1337,0.295275 0.2981,0.295275 0.16475,0 0.29845,-0.132291 0.29845,-0.295275 0,-0.166158 -0.1337,-0.301625 -0.29845,-0.301625 z m 0,1.055864 c -0.41734,0 -0.75706,-0.338314 -0.75706,-0.754239 0,-0.4191 0.33972,-0.760589 0.75706,-0.760589 0.41769,0 0.75706,0.341489 0.75706,0.760589 0,0.415925 -0.33937,0.754239 -0.75706,0.754239"
         style="fill:#100f0d;fill-opacity:1;fill-rule:nonzero;stroke:none;stroke-width:0.0352778"
         id="path6101" />
      <path
         d="m 187.6588,60.464881 c 0.42898,0 0.77435,0.346075 0.77435,0.776112 0,0.429683 -0.34537,0.776111 -0.77435,0.776111 -0.43003,0 -0.77752,-0.346428 -0.77752,-0.776111 0,-0.430037 0.34749,-0.776112 0.77752,-0.776112"
         style="fill:#52aee5;fill-opacity:1;fill-rule:nonzero;stroke:none;stroke-width:0.0352778"
         id="path6103" />
      <path
         d="m 187.6588,60.694187 c -0.30268,0 -0.54821,0.245533 -0.54821,0.546806 0,0.301625 0.24553,0.546805 0.54821,0.546805 0.30057,0 0.54504,-0.24518 0.54504,-0.546805 0,-0.301273 -0.24447,-0.546806 -0.54504,-0.546806 z m 0,1.552575 c -0.55562,0 -1.00718,-0.451555 -1.00718,-1.005769 0,-0.554214 0.45156,-1.005417 1.00718,-1.005417 0.55351,0 1.00366,0.451203 1.00366,1.005417 0,0.554214 -0.45015,1.005769 -1.00366,1.005769"
         style="fill:#100f0d;fill-opacity:1;fill-rule:nonzero;stroke:none;stroke-width:0.0352778"
         id="path6105" />
      <path
         d="m 177.50727,53.741995 c 0.42792,0 0.77505,0.34925 0.77505,0.775758 0,0.430036 -0.34713,0.778934 -0.77505,0.778934 -0.42968,0 -0.77647,-0.348898 -0.77647,-0.778934 0,-0.426508 0.34679,-0.775758 0.77647,-0.775758"
         style="fill:#52aee5;fill-opacity:1;fill-rule:nonzero;stroke:none;stroke-width:0.0352778"
         id="path6107" />
      <path
         d="m 177.50727,53.971653 c -0.30163,0 -0.54681,0.244828 -0.54681,0.5461 0,0.303036 0.24518,0.549275 0.54681,0.549275 0.30092,0 0.54539,-0.246239 0.54539,-0.549275 0,-0.301272 -0.24447,-0.5461 -0.54539,-0.5461 z m 0,1.554339 c -0.55457,0 -1.00577,-0.452261 -1.00577,-1.008239 0,-0.554214 0.4512,-1.005064 1.00577,-1.005064 0.55386,0 1.00436,0.45085 1.00436,1.005064 0,0.555978 -0.4505,1.008239 -1.00436,1.008239"
         style="fill:#100f0d;fill-opacity:1;fill-rule:nonzero;stroke:none;stroke-width:0.0352778"
         id="path6109" />
      <path
         d="m 183.66889,67.106982 c -0.1651,0 -0.29916,0.135467 -0.29916,0.301625 0,0.163336 0.13406,0.296333 0.29916,0.296333 0.1651,0 0.29915,-0.132997 0.29915,-0.296333 0,-0.166158 -0.13405,-0.301625 -0.29915,-0.301625 z m 0,1.056922 c -0.41769,0 -0.75777,-0.339019 -0.75777,-0.755297 0,-0.4191 0.34008,-0.760589 0.75777,-0.760589 0.41804,0 0.75812,0.341489 0.75812,0.760589 0,0.416278 -0.34008,0.755297 -0.75812,0.755297"
         style="fill:#100f0d;fill-opacity:1;fill-rule:nonzero;stroke:none;stroke-width:0.0352778"
         id="path6111" />
      <path
         style="fill:none;stroke:#000000;stroke-width:0.465;stroke-linecap:round;stroke-linejoin:miter;stroke-miterlimit:4;stroke-dasharray:none;stroke-opacity:1"
         d="m 178.97268,77.34756 c -0.20575,-0.171451 -0.68669,-1.08647 -0.68669,-1.08647 -0.30043,-0.653355 -1.05252,-1.058292 -1.77003,-1.48225 -0.58369,0.134107 -0.80087,1.105666 -1.25807,1.368559 -0.4572,0.262892 -1.20016,1.303032 -1.26874,1.577355 m 1.37161,-1.634506 c 0.84583,0.365764 0.81154,0.902979 1.26874,1.245882 m -2.02313,-0.262892 c 0.29719,0.445774 0.16003,0.948699 0.36577,1.245882 m 3.22329,-2.503195 c 0.76582,-0.148591 1.04014,0.171452 1.49734,0.125732 m -5.02925,0.434344 c -0.61722,-0.114301 -0.9144,0.251462 -1.33732,0.274322"
         id="path16849"
         sodipodi:nodetypes="cc" />
      <path
         style="fill:none;stroke:#000000;stroke-width:0.05611457;stroke-linecap:butt;stroke-linejoin:miter;stroke-miterlimit:4;stroke-dasharray:none;stroke-opacity:1"
         d="m 173.3262,76.650323 c -0.0933,0.107124 -0.5634,0.632698 -0.61723,0.754387 -0.0269,0.06085 0.0405,0.127979 0.0457,0.19431 0.006,0.07985 0.005,0.161711 -0.0114,0.240033 -0.0255,0.118785 -0.21587,0.170802 -0.30861,0.217173 -0.0397,0.01987 -0.0736,0.05077 -0.1143,0.06858 -0.0212,0.0093 -0.0463,0.0051 -0.0686,0.01143 -0.0154,0.0044 -0.0123,0.02727 -0.0229,0.03429 -0.006,0.0042 -0.0156,-0.0024 -0.0229,0 -0.0181,0.006 -0.0281,0.02696 -0.0457,0.03429 -0.0426,0.01773 -0.17701,0.0617 -0.22861,0.06858 -0.0589,0.0079 -0.13787,-0.01072 -0.18288,0.03429 -0.0666,0.06659 -0.13641,0.171802 -0.18288,0.251463 -0.0134,0.02304 0.004,0.0537 0,0.08001 -0.004,0.02135 -0.0399,0.0075 -0.0457,0.01143 -0.0159,0.01056 -0.0208,0.03225 -0.0343,0.04572 -0.0101,0.01008 -0.11079,0.06858 -0.12573,0.06858 m 2.1775,-2.388888 c 0.0121,-0.05161 0.009,-0.05308 -0.0171,-0.09716 -0.078,-0.13364 -0.14766,-0.243429 -0.16573,-0.400054 -0.002,-0.02082 0,-0.04191 0,-0.06287 0,-0.06286 -0.005,-0.125948 0,-0.188596 0.005,-0.05523 0.0228,-0.110745 0.0286,-0.165737 0.0113,-0.107071 -0.0154,-0.19813 -0.0514,-0.297183 -0.006,-0.0153 -0.009,-0.03186 -0.0171,-0.04572 -0.013,-0.02114 -0.0842,-0.07887 -0.10858,-0.09716 m -0.0573,1.508786 c -0.0495,-0.02477 -0.0652,-0.03084 -0.12001,-0.07429 -0.0285,-0.02262 -0.0528,-0.05012 -0.08,-0.0743 -0.007,-0.0063 -0.0165,-0.01006 -0.0229,-0.01714 -0.0434,-0.04818 -0.0453,-0.08218 -0.1143,-0.102871 -0.0423,-0.0127 -0.0876,0.01192 -0.13145,0.01714 -0.11615,0.01383 -0.23234,0.02729 -0.34862,0.04 -0.0456,0.005 -0.0914,0.0079 -0.13716,0.01143 -0.004,2.93e-4 -0.008,0.0024 -0.0114,0 -0.009,-0.0078 -0.0151,-0.01913 -0.0229,-0.02858 -0.0266,-0.03247 -0.0513,-0.06658 -0.08,-0.09716 -0.0305,-0.03241 -0.0663,-0.05945 -0.0972,-0.09144 -0.0225,-0.02334 -0.0361,-0.05595 -0.0629,-0.07429 -0.17311,-0.118702 -0.39696,-0.108331 -0.59437,-0.09716 -0.0765,0.0043 -0.15996,0.01567 -0.22289,0.06286 m 0.81735,0.04002 c -0.13003,0.03166 -0.27077,0.102819 -0.35434,0.211457 -0.0296,0.03844 -0.0453,0.09684 -0.0857,0.125731 -0.0558,0.03986 -0.24495,0.152225 -0.31433,0.182882 -0.0233,0.01032 -0.088,0.028 -0.12573,0.03429 -0.0549,0.0091 -0.11172,-0.01172 -0.16574,0.01143 -0.0248,0.01061 -0.0363,0.04009 -0.0571,0.05715 -0.009,0.007 -0.0201,0.0099 -0.0286,0.01714 -0.005,0.0045 -0.008,0.01143 -0.0114,0.01714 -0.0152,0.0095 -0.0305,0.01905 -0.0457,0.02858 m 0.58284,-0.217164 c -0.0229,0.01905 -0.0482,0.03548 -0.0686,0.05715 -0.0105,0.01118 -0.0148,0.02695 -0.0229,0.04001 -0.0167,0.02696 -0.0398,0.0505 -0.0514,0.08001 -0.0214,0.05449 -0.0168,0.09676 0.0171,0.142876 0.0291,0.03953 0.0914,0.06298 0.0914,0.120016 0,0.01524 0.006,0.03171 0,0.04572 -0.006,0.01486 -0.0233,0.02247 -0.0343,0.03429 -0.0157,0.01677 -0.0311,0.03375 -0.0457,0.05144 -0.007,0.0083 -0.13513,0.171082 -0.14288,0.194312 -0.002,0.0072 0.001,0.01534 0,0.02286 -0.004,0.02215 -0.0171,0.03061 -0.0171,0.05715 m 0.49727,-1.051576 c -0.0857,-0.0068 -0.16646,-0.04035 -0.25146,-0.05143 -0.0359,-0.0047 -0.0725,0.0024 -0.10859,0 -0.0269,-0.0018 -0.0537,-0.01727 -0.08,-0.01143 -0.0501,0.01113 -0.0951,0.03846 -0.14288,0.05715 -0.11065,0.0433 -0.19833,0.07558 -0.31432,0.102871 -0.0344,0.0081 -0.11514,0.0011 -0.1486,-0.01143 -0.0184,-0.0069 -0.0331,-0.02169 -0.0514,-0.02858 -0.0126,-0.0047 -0.0271,-0.0018 -0.04,-0.0057 -0.007,-0.002 -0.0114,-0.0076 -0.0171,-0.01143 -0.0114,-0.0057 -0.0219,-0.01405 -0.0343,-0.01715 -0.0362,-0.009 -0.096,6.45e-4 -0.13145,0.0057 m 0.4457,0.09144 c -0.008,0.0019 -0.0167,8.09e-4 -0.0229,0.0057 -0.009,0.0075 -0.006,0.02335 -0.0114,0.03429 -0.009,0.01934 -0.0191,0.0381 -0.0286,0.05715 -0.0457,0.09136 -0.0873,0.18109 -0.1143,0.280038 -0.001,0.0037 0,0.0076 0,0.01143 0,0.01524 0.004,0.03107 0,0.04572 -0.026,0.09114 -0.0432,0.07592 -0.1143,0.142876 -0.023,0.0046 -0.0128,0.02845 -0.0229,0.04001 -0.0116,0.01322 -0.0344,0.01763 -0.04,0.03429 -0.0216,0.06476 0.0423,0.117751 0.0572,0.182881 0.0121,0.05314 -0.007,0.20011 -0.0171,0.245748 -0.007,0.03299 -0.012,0.06773 -0.0286,0.09716 -0.0185,0.03296 -0.0492,0.05746 -0.0743,0.08573 -0.007,0.0081 -0.0195,0.01264 -0.0229,0.02286 -0.003,0.0092 -0.002,0.01948 -0.006,0.02858 -0.0111,0.02969 -0.0373,0.05165 -0.0514,0.08001 -0.004,0.0087 -0.002,0.0197 -0.006,0.02858 -0.0461,0.103799 0.002,-0.03432 -0.0229,0.04001 m 0.2349,-0.885859 c 0.0324,-0.0057 0.0644,-0.0204 0.0972,-0.01712 0.0111,0.0011 0.0105,0.01969 0.0171,0.02858 0.0248,0.03303 0.0577,0.06269 0.0914,0.08573 0.031,0.02114 0.10756,0.06252 0.14288,0.0743 0.002,5.78e-4 0.12725,0.0258 0.14287,0.04001 0.0107,0.0098 0.0116,0.02661 0.0171,0.04 0.0232,0.05563 -0.006,0.13557 0.0171,0.177167 0.0282,0.05069 0.0795,0.128739 0.12573,0.165737 0.024,0.01919 0.054,0.02932 0.08,0.04572 0.0148,0.0094 0.0243,0.02644 0.04,0.03429 0.0248,0.0124 0.0587,0.01836 0.0857,0.02286 m 0.0688,-0.720112 c 0.01,0.0038 0.0185,0.0094 0.0286,0.01143 0.0283,0.0057 0.0572,0.0076 0.0857,0.01143 0.10096,0.02286 0.20253,0.04321 0.3029,0.06858 0.0731,0.01847 0.14731,0.03459 0.21717,0.06287 0.058,0.02349 5.3e-4,0.07837 -0.0114,0.09716 -0.0165,0.02591 -0.0302,0.05348 -0.0457,0.08001 -0.0112,0.01919 -0.0254,0.0368 -0.0343,0.05715 -0.005,0.01062 -0.002,0.0233 -0.006,0.03429 -0.0148,0.0445 -0.0339,0.02937 -0.006,0.08573 0.0163,0.03266 0.0759,0.03357 0.10287,0.05715 0.0334,0.02926 0.007,0.05634 0.0171,0.09144 0.007,0.02361 0.0505,0.05809 0.0229,0.08573 m -0.29094,-0.657244 c -0.0205,0.02726 -0.071,0.01846 -0.0915,0.04572 -0.009,0.01229 -0.001,0.03109 -0.006,0.04572 -0.009,0.02765 -0.0286,0.05156 -0.0343,0.08001 -0.001,0.0066 -0.0209,0.154508 -0.006,0.200027 0.004,0.01303 0.0176,0.02161 0.0229,0.03429 0.007,0.01739 0.0133,0.08087 0,0.09716 -0.0282,0.03442 -0.0705,0.05586 -0.0971,0.09144 -0.009,0.01215 -0.0589,0.1333 -0.0629,0.160022 -0.009,0.06274 0.0567,0.07468 0.0629,0.154306 8.7e-4,0.0114 0.005,0.02379 0,0.03429 -0.0257,0.05991 -0.0645,0.09884 -0.10859,0.142876 -0.0249,0.02486 -0.0613,0.03272 -0.0857,0.05715 m 0.90923,-1.880258 c -0.0647,-0.03236 -0.0772,-0.06488 -0.13147,-0.04572 -0.0233,0.0082 -0.052,0.01017 -0.0686,0.02858 -0.0206,0.02288 -0.0246,0.05653 -0.0343,0.08573 -0.0261,0.07832 -0.0275,0.19788 -0.0971,0.245747 -0.0534,0.03674 -0.17488,0.05201 -0.23432,0.0743 -0.0243,0.0091 -0.0399,0.03377 -0.0629,0.04572 -0.0311,0.01616 -0.0658,0.02434 -0.0971,0.04001 -0.053,0.02651 -0.0514,0.0145 -0.0514,0.04 m 0.47427,-0.222895 c 0.0171,0.0095 0.0329,0.0221 0.0514,0.02858 0.0201,0.007 0.0419,0.0076 0.0629,0.01143 0.0457,0.02096 0.0913,0.04216 0.13716,0.06287 0.0132,0.006 0.0292,0.0075 0.04,0.01714 0.0278,0.02469 0.008,0.09249 -0.006,0.114302 -0.0257,0.04176 -0.0754,0.05895 -0.08,0.114301 -0.005,0.05469 0.0337,0.07071 0.0629,0.108586 0.005,0.0064 0.0259,0.0522 0.0286,0.06287 0.006,0.02489 -0.004,0.06281 -0.006,0.08573 -0.003,0.05112 7.8e-4,0.03248 0.0114,0.08573 0.003,0.01518 -0.001,0.01714 0.0172,0.01714 m -0.0167,-0.514367 c 0.11779,0.0025 0.12735,-0.03774 0.17717,0.08001 0.0117,0.02774 0.0205,0.0567 0.0286,0.08573 0.002,0.0073 -0.005,0.01747 0,0.02286 0.0124,0.01242 0.0254,0.02455 0.04,0.03429 0.0487,0.03247 0.0722,0.01566 0.0857,0.0743 0.009,0.0374 -0.003,0.02647 -0.006,0.05715 -0.002,0.02822 0.0173,0.108471 0.0114,0.114301 -0.004,0.004 -0.0114,0 -0.0171,0 m 0.52038,-0.828689 c -0.10033,0.0042 -0.19904,0.09949 -0.24574,0.182881 -0.008,0.01505 -0.001,0.03474 -0.006,0.05144 -0.022,0.08492 -0.0427,0.08296 -0.0343,0.154306 0.006,0.04857 0.041,0.11231 0.0172,0.160022 -0.0345,0.06891 -0.0556,0.06091 -0.10288,0.120016 -0.0566,0.07075 0.0268,0.164578 0.006,0.217172 -0.0226,0.05656 -0.046,0.08598 -0.0914,0.131447 -0.0154,0.01536 -0.0384,0.02263 -0.0514,0.04 -0.0589,0.07854 -0.0634,0.171579 -0.10287,0.257177 -0.0256,0.05541 -0.1425,0.114053 -0.19431,0.148592"
         id="path17449" />
    </g>
    <text
       xml:space="preserve"
       style="font-size:14.1111px;line-height:1.25;font-family:sans-serif;stroke-width:0.264583"
       x="54.830383"
       y="65.693016"
       id="text18633"><tspan
         sodipodi:role="line"
         id="tspan18631"
         style="stroke-width:0.264583"
         x="54.830383"
         y="65.693016">water</tspan></text>
    <text
       xml:space="preserve"
       style="font-size:14.1111px;line-height:1.25;font-family:sans-serif;stroke-width:0.264583"
       x="63.10667"
       y="118.45432"
       id="text20287"><tspan
         sodipodi:role="line"
         id="tspan20285"
         style="stroke-width:0.264583"
         x="63.10667"
         y="118.45432">nutrients</tspan></text>
    <text
       xml:space="preserve"
       style="font-size:14.1111px;line-height:1.25;font-family:sans-serif;stroke-width:0.264583"
       x="-75.003822"
       y="90.521851"
       id="text21875"><tspan
         sodipodi:role="line"
         id="tspan21873"
         style="stroke-width:0.264583"
         x="-75.003822"
         y="90.521851">(soil structure)</tspan></text>
    <text
       xml:space="preserve"
       style="font-size:14.1111px;line-height:1.25;font-family:sans-serif;stroke-width:0.264583"
       x="70.865685"
       y="136.55869"
       id="text24819"><tspan
         sodipodi:role="line"
         id="tspan24817"
         style="stroke-width:0.264583"
         x="70.865685"
         y="136.55869">N</tspan></text>
    <text
       xml:space="preserve"
       style="font-size:14.1111px;line-height:1.25;font-family:sans-serif;stroke-width:0.264583"
       x="72.417488"
       y="155.95622"
       id="text27331"><tspan
         sodipodi:role="line"
         id="tspan27329"
         style="stroke-width:0.264583"
         x="72.417488"
         y="155.95622">P</tspan></text>
    <text
       xml:space="preserve"
       style="font-size:14.1111px;line-height:1.25;font-family:sans-serif;stroke-width:0.264583"
       x="172.76743"
       y="44.226391"
       id="text31883"><tspan
         sodipodi:role="line"
         id="tspan31881"
         style="stroke-width:0.264583"
         x="172.76743"
         y="44.226391">Crop</tspan></text>
    <text
       xml:space="preserve"
       style="font-size:14.1111px;line-height:1.25;font-family:sans-serif;stroke-width:0.264583"
       x="237.68454"
       y="104.22945"
       id="text34199"><tspan
         sodipodi:role="line"
         id="tspan34197"
         style="stroke-width:0.264583"
         x="237.68454"
         y="104.22945">Soil</tspan></text>
  </g>
</svg>
